<?xml version="1.0" encoding="UTF-8"?>
<svg id="Calque_1" data-name="Calque 1" xmlns="http://www.w3.org/2000/svg" viewBox="0 0 384 326.16">
  <path d="m384,135.39c-1.98,6.89-6.49,12.16-10.99,17.5-16.97,20.14-33.85,40.36-50.74,60.57-10.06,12.03-24.29,13.36-36.3,3.34-22.24-18.56-44.5-37.1-66.71-55.7-8.04-6.74-11.11-15.38-8.16-25.46,2.89-9.89,9.91-15.65,20.18-17.1,6.93-.97,13.09,1.16,18.44,5.59,8.17,6.77,16.31,13.58,24.47,20.37.85.7,1.73,1.37,3.37,1.78-1.07-4.85-1.91-9.76-3.26-14.53-13.13-46.37-54.01-79.71-102.11-83.37-61.23-4.67-115.37,39.28-123.28,100.08-7.73,59.47,32.53,115.69,91.48,127.38,7.55,1.5,15.35,1.97,23.07,2.36,13.69.69,24.12,11.04,23.91,24.24-.21,13.36-11.1,23.74-24.87,23.71-77.02-.19-144.24-55.34-159.3-130.82-1.43-7.18-2.15-14.51-3.2-21.76,0-6.99,0-13.97,0-20.96.22-1.08.48-2.16.65-3.24,1.39-8.6,2.15-17.35,4.24-25.78C24.95,42.81,103.52-10.7,185.93,1.81c64.36,9.78,108.06,46.56,131.39,107.19,3.23,8.4,5.05,17.34,7.6,26.33.76-.84,1.58-1.69,2.35-2.59,4.99-5.91,9.8-11.99,14.98-17.73,12.42-13.74,34.67-8.93,40.53,8.63.39,1.17.81,2.33,1.22,3.5v8.23Z"/>
</svg>